<svg width="254" height="34" viewBox="0 0 254 34" fill="none" xmlns="http://www.w3.org/2000/svg">
<path d="M60.5252 27V22.301H52.8154L49.8046 27H45.0493L58.2741 7.05021H73.0184V10.7081H64.4364V15.2665H72.2024V18.7274H64.4364V23.3421H73.0466V27H60.5252ZM60.5252 19.037V10.2579L54.8976 19.037H60.5252ZM79.5625 13.1561H82.3481V16.4764H79.5625V22.2728C79.5625 22.8731 79.6938 23.2952 79.9564 23.539C80.2378 23.7641 80.6505 23.8767 81.1945 23.8767C81.4196 23.8767 81.6447 23.8673 81.8698 23.8486C82.0949 23.8298 82.2543 23.8017 82.3481 23.7641V26.8593C82.1793 26.9343 81.9167 27.0094 81.5603 27.0844C81.2226 27.1594 80.7818 27.197 80.2378 27.197C78.8872 27.197 77.8179 26.8218 77.0301 26.0714C76.2422 25.3211 75.8483 24.2706 75.8483 22.92V16.4764H73.344V13.1561H74.0474C74.779 13.1561 75.3136 12.9498 75.6513 12.5371C76.0077 12.1057 76.1859 11.5804 76.1859 10.9614V9.01986H79.5625V13.1561ZM86.8942 27H83.1518V6.62814H86.8942V14.3098C87.3444 13.7658 87.9165 13.3812 88.6106 13.1561C89.3046 12.9123 89.98 12.7903 90.6365 12.7903C91.5182 12.7903 92.2779 12.9404 92.9157 13.2406C93.5722 13.5219 94.1068 13.9065 94.5195 14.3942C94.951 14.8819 95.2699 15.4634 95.4762 16.1388C95.6826 16.8141 95.7857 17.5269 95.7857 18.2772V27H92.0434V18.9244C92.0434 18.1366 91.8371 17.48 91.4244 16.9548C91.0304 16.4295 90.3833 16.1669 89.4828 16.1669C88.695 16.1669 88.076 16.4295 87.6257 16.9548C87.1755 17.4612 86.9317 18.099 86.8942 18.8681V27ZM106.815 18.5023C106.797 18.1647 106.722 17.8364 106.59 17.5175C106.478 17.1799 106.29 16.8891 106.028 16.6452C105.784 16.3826 105.465 16.1763 105.071 16.0262C104.696 15.8574 104.245 15.773 103.72 15.773C103.232 15.773 102.801 15.8574 102.426 16.0262C102.051 16.195 101.732 16.4108 101.469 16.6734C101.207 16.936 101 17.2268 100.85 17.5457C100.719 17.8646 100.644 18.1834 100.625 18.5023H106.815ZM110.304 23.0326C110.136 23.6328 109.864 24.205 109.488 24.749C109.132 25.2742 108.691 25.7338 108.166 26.1277C107.641 26.5217 107.022 26.8312 106.309 27.0563C105.615 27.3001 104.846 27.4221 104.002 27.4221C103.045 27.4221 102.135 27.2626 101.272 26.9437C100.409 26.6061 99.6496 26.1183 98.993 25.4806C98.3365 24.8428 97.8112 24.0643 97.4173 23.1451C97.0421 22.2259 96.8545 21.1848 96.8545 20.0218C96.8545 18.915 97.0421 17.9114 97.4173 17.011C97.7925 16.1106 98.2896 15.3509 98.9086 14.7319C99.5464 14.0941 100.278 13.6063 101.103 13.2687C101.929 12.9123 102.782 12.7341 103.664 12.7341C105.821 12.7341 107.5 13.3719 108.701 14.6474C109.901 15.923 110.501 17.677 110.501 19.9092C110.501 20.1719 110.492 20.4251 110.473 20.669C110.455 20.8941 110.445 21.0254 110.445 21.0629H100.541C100.559 21.5131 100.663 21.9352 100.85 22.3291C101.056 22.7043 101.31 23.0326 101.61 23.3139C101.929 23.5953 102.295 23.8204 102.707 23.9892C103.12 24.1393 103.561 24.2143 104.03 24.2143C104.911 24.2143 105.596 24.0174 106.084 23.6234C106.59 23.2295 106.956 22.723 107.181 22.104L110.304 23.0326ZM120.202 16.8703C119.826 16.7953 119.451 16.7578 119.076 16.7578C118.588 16.7578 118.129 16.8234 117.697 16.9548C117.266 17.0861 116.891 17.3018 116.572 17.6019C116.253 17.9021 115.99 18.3054 115.784 18.8119C115.596 19.2996 115.503 19.9186 115.503 20.669V27H111.76V13.1561H115.39V15.2102C115.596 14.76 115.859 14.3942 116.178 14.1128C116.515 13.8127 116.863 13.5876 117.219 13.4375C117.594 13.2874 117.96 13.1843 118.316 13.128C118.691 13.0717 119.029 13.0436 119.329 13.0436C119.479 13.0436 119.62 13.053 119.751 13.0717C119.901 13.0717 120.051 13.0811 120.202 13.0999V16.8703ZM126.862 27V7.05021H129.675V27H126.862ZM135.423 27H132.778V13.4657H135.367V15.4072C135.855 14.563 136.474 13.9628 137.224 13.6063C137.974 13.2499 138.744 13.0717 139.531 13.0717C140.338 13.0717 141.042 13.2124 141.642 13.4938C142.261 13.7564 142.767 14.1316 143.161 14.6193C143.574 15.0883 143.874 15.651 144.062 16.3076C144.268 16.9641 144.371 17.6676 144.371 18.4179V27H141.726V18.8681C141.726 18.3992 141.67 17.9583 141.557 17.5457C141.464 17.133 141.285 16.7766 141.023 16.4764C140.779 16.1575 140.451 15.9137 140.038 15.7448C139.644 15.5572 139.156 15.4634 138.575 15.4634C138.05 15.4634 137.59 15.5666 137.196 15.773C136.802 15.9606 136.474 16.2232 136.211 16.5608C135.949 16.8985 135.752 17.2924 135.62 17.7426C135.489 18.1928 135.423 18.6712 135.423 19.1777V27ZM150.436 13.4657H153.362V15.8574H150.436V22.8919C150.436 23.5109 150.576 23.9799 150.858 24.2988C151.139 24.5989 151.627 24.749 152.321 24.749C152.49 24.749 152.677 24.7396 152.884 24.7208C153.09 24.7021 153.249 24.6739 153.362 24.6364V26.8874C153.249 26.925 153.034 26.9719 152.715 27.0281C152.396 27.1032 152.011 27.1407 151.561 27.1407C150.398 27.1407 149.479 26.8124 148.804 26.1559C148.128 25.4806 147.791 24.5239 147.791 23.2858V15.8574H145.202V13.4657H145.933C146.665 13.4657 147.19 13.2687 147.509 12.8748C147.847 12.4808 148.016 11.9837 148.016 11.3834V9.18869H150.436V13.4657ZM164.183 18.84C164.146 17.8646 163.818 17.0486 163.199 16.392C162.579 15.7167 161.67 15.379 160.469 15.379C159.906 15.379 159.4 15.4822 158.95 15.6886C158.518 15.8761 158.143 16.1388 157.824 16.4764C157.524 16.7953 157.28 17.1611 157.093 17.5738C156.905 17.9865 156.802 18.4086 156.783 18.84H164.183ZM166.856 23.1451C166.669 23.7454 166.387 24.3081 166.012 24.8334C165.656 25.3399 165.215 25.7901 164.69 26.184C164.183 26.5592 163.602 26.8593 162.945 27.0844C162.289 27.3095 161.567 27.4221 160.779 27.4221C159.878 27.4221 159.015 27.2626 158.19 26.9437C157.365 26.6248 156.633 26.1559 155.995 25.5368C155.376 24.9178 154.879 24.1581 154.504 23.2577C154.147 22.3572 153.969 21.3349 153.969 20.1906C153.969 19.1214 154.147 18.1553 154.504 17.2924C154.86 16.4108 155.329 15.6604 155.911 15.0414C156.511 14.4036 157.205 13.9159 157.993 13.5782C158.781 13.2218 159.597 13.0436 160.441 13.0436C161.473 13.0436 162.392 13.2218 163.199 13.5782C164.024 13.9159 164.709 14.3942 165.253 15.0132C165.797 15.6323 166.209 16.3826 166.491 17.2643C166.791 18.1272 166.941 19.0839 166.941 20.1343C166.941 20.3032 166.931 20.4626 166.913 20.6127C166.913 20.7628 166.903 20.8847 166.885 20.9785H156.699C156.717 21.5788 156.83 22.1321 157.036 22.6386C157.243 23.1451 157.524 23.5859 157.88 23.9611C158.256 24.3175 158.687 24.5989 159.175 24.8052C159.681 24.9928 160.216 25.0866 160.779 25.0866C161.885 25.0866 162.73 24.824 163.311 24.2988C163.893 23.7735 164.315 23.1263 164.577 22.3572L166.856 23.1451ZM168.629 27V6.62814H171.274V27H168.629ZM174.085 27V6.62814H176.73V27H174.085ZM179.541 27V13.4657H182.158V27H179.541ZM178.95 8.34455C178.95 7.80055 179.128 7.35034 179.485 6.99393C179.86 6.61876 180.31 6.43117 180.835 6.43117C181.379 6.43117 181.83 6.61876 182.186 6.99393C182.561 7.35034 182.749 7.80055 182.749 8.34455C182.749 8.86979 182.561 9.32 182.186 9.69517C181.83 10.0516 181.379 10.2298 180.835 10.2298C180.31 10.2298 179.86 10.0516 179.485 9.69517C179.128 9.32 178.95 8.86979 178.95 8.34455ZM186.546 27.1407C186.639 28.0974 187.014 28.8852 187.671 29.5043C188.346 30.1421 189.2 30.461 190.232 30.461C191.657 30.461 192.698 30.0952 193.355 29.3636C194.03 28.632 194.368 27.5346 194.368 26.0714V24.1299C194.049 24.749 193.533 25.2742 192.82 25.7057C192.107 26.1371 191.245 26.3528 190.232 26.3528C189.331 26.3528 188.496 26.1934 187.727 25.8745C186.977 25.5368 186.32 25.0866 185.758 24.5239C185.214 23.9423 184.782 23.2483 184.463 22.4417C184.163 21.635 184.013 20.7534 184.013 19.7967C184.013 18.8775 184.163 18.024 184.463 17.2361C184.763 16.4295 185.186 15.7354 185.73 15.1539C186.274 14.5537 186.921 14.0847 187.671 13.747C188.44 13.3906 189.294 13.2124 190.232 13.2124C191.282 13.2124 192.154 13.4 192.848 13.7752C193.542 14.1503 194.058 14.6756 194.396 15.3509V13.4657H197.013V25.987C197.013 26.8499 196.9 27.6847 196.675 28.4913C196.45 29.3167 196.066 30.0389 195.522 30.6579C194.996 31.2957 194.302 31.8022 193.439 32.1774C192.576 32.5713 191.507 32.7683 190.232 32.7683C189.387 32.7683 188.6 32.637 187.868 32.3743C187.155 32.1305 186.517 31.7834 185.955 31.3332C185.411 30.883 184.96 30.3484 184.604 29.7294C184.266 29.1291 184.06 28.4632 183.985 27.7316L186.546 27.1407ZM190.626 24.1299C191.77 24.1299 192.698 23.736 193.411 22.9481C194.124 22.1603 194.48 21.1098 194.48 19.7967C194.48 18.4836 194.124 17.4331 193.411 16.6452C192.698 15.8574 191.77 15.4634 190.626 15.4634C189.444 15.4634 188.496 15.8574 187.784 16.6452C187.071 17.4331 186.714 18.4836 186.714 19.7967C186.714 21.1286 187.061 22.1884 187.755 22.9763C188.468 23.7454 189.425 24.1299 190.626 24.1299ZM208.665 18.84C208.628 17.8646 208.3 17.0486 207.681 16.392C207.062 15.7167 206.152 15.379 204.951 15.379C204.388 15.379 203.882 15.4822 203.432 15.6886C203 15.8761 202.625 16.1388 202.306 16.4764C202.006 16.7953 201.762 17.1611 201.575 17.5738C201.387 17.9865 201.284 18.4086 201.265 18.84H208.665ZM211.339 23.1451C211.151 23.7454 210.87 24.3081 210.494 24.8334C210.138 25.3399 209.697 25.7901 209.172 26.184C208.665 26.5592 208.084 26.8593 207.427 27.0844C206.771 27.3095 206.049 27.4221 205.261 27.4221C204.36 27.4221 203.497 27.2626 202.672 26.9437C201.847 26.6248 201.115 26.1559 200.477 25.5368C199.858 24.9178 199.361 24.1581 198.986 23.2577C198.63 22.3572 198.451 21.3349 198.451 20.1906C198.451 19.1214 198.63 18.1553 198.986 17.2924C199.342 16.4108 199.811 15.6604 200.393 15.0414C200.993 14.4036 201.687 13.9159 202.475 13.5782C203.263 13.2218 204.079 13.0436 204.923 13.0436C205.955 13.0436 206.874 13.2218 207.681 13.5782C208.506 13.9159 209.191 14.3942 209.735 15.0132C210.279 15.6323 210.691 16.3826 210.973 17.2643C211.273 18.1272 211.423 19.0839 211.423 20.1343C211.423 20.3032 211.414 20.4626 211.395 20.6127C211.395 20.7628 211.385 20.8847 211.367 20.9785H201.181C201.2 21.5788 201.312 22.1321 201.518 22.6386C201.725 23.1451 202.006 23.5859 202.363 23.9611C202.738 24.3175 203.169 24.5989 203.657 24.8052C204.163 24.9928 204.698 25.0866 205.261 25.0866C206.368 25.0866 207.212 24.824 207.793 24.2988C208.375 23.7735 208.797 23.1263 209.059 22.3572L211.339 23.1451ZM215.756 27H213.111V13.4657H215.7V15.4072C216.187 14.563 216.806 13.9628 217.557 13.6063C218.307 13.2499 219.076 13.0717 219.864 13.0717C220.671 13.0717 221.374 13.2124 221.974 13.4938C222.594 13.7564 223.1 14.1316 223.494 14.6193C223.907 15.0883 224.207 15.651 224.394 16.3076C224.601 16.9641 224.704 17.6676 224.704 18.4179V27H222.059V18.8681C222.059 18.3992 222.003 17.9583 221.89 17.5457C221.796 17.133 221.618 16.7766 221.355 16.4764C221.112 16.1575 220.783 15.9137 220.371 15.7448C219.977 15.5572 219.489 15.4634 218.907 15.4634C218.382 15.4634 217.923 15.5666 217.529 15.773C217.135 15.9606 216.806 16.2232 216.544 16.5608C216.281 16.8985 216.084 17.2924 215.953 17.7426C215.822 18.1928 215.756 18.6712 215.756 19.1777V27ZM232.907 15.4916C232.363 15.4916 231.847 15.5948 231.359 15.8011C230.871 15.9887 230.431 16.2794 230.037 16.6734C229.661 17.0673 229.361 17.5644 229.136 18.1647C228.911 18.7462 228.799 19.4309 228.799 20.2188C228.799 20.9879 228.911 21.6726 229.136 22.2728C229.361 22.8543 229.661 23.3514 230.037 23.7641C230.412 24.1581 230.853 24.4582 231.359 24.6646C231.866 24.8709 232.391 24.9741 232.935 24.9741C233.573 24.9741 234.107 24.8803 234.539 24.6927C234.989 24.5051 235.355 24.2706 235.636 23.9892C235.936 23.7079 236.171 23.4077 236.34 23.0888C236.508 22.7512 236.63 22.451 236.705 22.1884L239.041 23.2014C238.872 23.6891 238.628 24.1862 238.309 24.6927C237.99 25.1804 237.578 25.6306 237.071 26.0433C236.565 26.456 235.964 26.7843 235.27 27.0281C234.595 27.2908 233.817 27.4221 232.935 27.4221C231.941 27.4221 231.021 27.2439 230.177 26.8874C229.352 26.5123 228.639 26.0058 228.039 25.368C227.439 24.7114 226.96 23.9517 226.604 23.0888C226.266 22.2072 226.097 21.2505 226.097 20.2188C226.097 19.1683 226.266 18.2022 226.604 17.3206C226.96 16.4389 227.439 15.6886 228.039 15.0695C228.658 14.4317 229.38 13.9346 230.205 13.5782C231.05 13.2218 231.95 13.0436 232.907 13.0436C233.807 13.0436 234.595 13.1749 235.27 13.4375C235.964 13.6814 236.555 14.0097 237.043 14.4223C237.549 14.835 237.953 15.304 238.253 15.8292C238.553 16.3357 238.778 16.8422 238.928 17.3487L236.537 18.3617C236.443 18.024 236.311 17.6863 236.143 17.3487C235.974 17.011 235.739 16.7109 235.439 16.4483C235.158 16.1669 234.811 15.9418 234.398 15.773C233.985 15.5854 233.488 15.4916 232.907 15.4916ZM249.435 18.84C249.397 17.8646 249.069 17.0486 248.45 16.392C247.831 15.7167 246.921 15.379 245.72 15.379C245.158 15.379 244.651 15.4822 244.201 15.6886C243.77 15.8761 243.394 16.1388 243.075 16.4764C242.775 16.7953 242.531 17.1611 242.344 17.5738C242.156 17.9865 242.053 18.4086 242.034 18.84H249.435ZM252.108 23.1451C251.92 23.7454 251.639 24.3081 251.264 24.8334C250.907 25.3399 250.466 25.7901 249.941 26.184C249.435 26.5592 248.853 26.8593 248.197 27.0844C247.54 27.3095 246.818 27.4221 246.03 27.4221C245.13 27.4221 244.267 27.2626 243.441 26.9437C242.616 26.6248 241.884 26.1559 241.247 25.5368C240.627 24.9178 240.13 24.1581 239.755 23.2577C239.399 22.3572 239.221 21.3349 239.221 20.1906C239.221 19.1214 239.399 18.1553 239.755 17.2924C240.112 16.4108 240.581 15.6604 241.162 15.0414C241.762 14.4036 242.456 13.9159 243.244 13.5782C244.032 13.2218 244.848 13.0436 245.692 13.0436C246.724 13.0436 247.643 13.2218 248.45 13.5782C249.275 13.9159 249.96 14.3942 250.504 15.0132C251.048 15.6323 251.461 16.3826 251.742 17.2643C252.042 18.1272 252.192 19.0839 252.192 20.1343C252.192 20.3032 252.183 20.4626 252.164 20.6127C252.164 20.7628 252.155 20.8847 252.136 20.9785H241.95C241.969 21.5788 242.081 22.1321 242.288 22.6386C242.494 23.1451 242.775 23.5859 243.132 23.9611C243.507 24.3175 243.938 24.5989 244.426 24.8052C244.933 24.9928 245.467 25.0866 246.03 25.0866C247.137 25.0866 247.981 24.824 248.562 24.2988C249.144 23.7735 249.566 23.1263 249.829 22.3572L252.108 23.1451Z" fill="white"/>
<mask id="mask0_259_846" style="mask-type:luminance" maskUnits="userSpaceOnUse" x="0" y="1" width="37" height="32">
<path d="M26.7844 30.3825L14.098 8.40772L11.6058 12.7219L17.4536 22.8263L19.3198 21.7456L24.0836 29.9974C24.9951 30.1026 25.8999 30.2304 26.798 30.3808M18.514 29.6564L10.179 15.2175L7.68179 19.5249L11.5464 26.2244L13.4126 25.1471L16.0337 29.6869C16.697 29.6615 17.3637 29.6445 18.0321 29.6445L18.514 29.6564ZM3.88163 31.5802L2.30219 28.8438L3.8147e-05 32.8271C1.27242 32.3623 2.56628 31.9467 3.88163 31.5802ZM5.6443 29.6378L3.74422 26.3448L6.23468 22.0289L10.9136 30.1331C10.1468 30.2366 9.38678 30.3536 8.62844 30.4911L7.51384 28.5588L5.6443 29.6378ZM36.0693 32.8255L18.0372 1.59289L15.5468 5.90878L23.3507 19.4197L25.2168 18.3407L32.9953 31.8143C34.0335 32.1208 35.0582 32.4579 36.0693 32.8255Z" fill="white"/>
</mask>
<g mask="url(#mask0_259_846)">
<path d="M36.0693 1.59287V32.8271H0.0034256V1.59287L36.0693 1.59287Z" fill="white"/>
</g>
</svg>
